<svg version="1.1" xmlns="http://www.w3.org/2000/svg" xmlns:xlink="http://www.w3.org/1999/xlink" x="0px" y="0px" viewBox="0 0 559.6 504.5" xml:space="preserve">
<path class="st0" fill="#0065FF" d="M459.2,23.1c40.2,31.8,37.5,93.2,53.9,142.9c17.5,53.2,53.9,100.9,45.2,158c-9.6,63.3-38.6,133-94.3,165.2
	c-54.9,31.7-120,6.7-178.7-7.5c-45.8-11.1-78.6-43.9-120.3-65c-53.2-27-132.2-20.9-157.3-75.9C-17.2,286.1,24,220.3,49.1,162.5
	c23.5-54.1,48.1-112,98-142.7C195.3-10,252.7,2.5,307.3,3.1C360.1,3.7,418.8-8.9,459.2,23.1z"/>
</svg>
