<svg width="133" height="132" viewBox="0 0 133 132" fill="none" xmlns="http://www.w3.org/2000/svg">
<path fill-rule="evenodd" clip-rule="evenodd" d="M155.11 69.3782C148.395 85.7238 129.296 90.7091 115.254 100.875C100.224 111.757 88.3294 128.358 70.0964 130.927C49.8861 133.774 26.226 130.817 12.0776 115.411C-1.8617 100.232 0.859243 76.276 0.767842 55.4347C0.696581 39.1869 8.27871 25.187 11.6125 9.34617C15.8673 -10.8713 7.96253 -36.5021 22.9714 -50.0684C37.8547 -63.5212 61.2628 -56.1469 80.9581 -53.3344C99.3787 -50.7039 119.074 -48.0495 132.339 -34.4505C145.164 -21.3026 145.683 -1.06738 149.669 17.1048C153.515 34.6433 161.869 52.9257 155.11 69.3782Z" fill="white" fill-opacity="0.46"/>
</svg>
